<svg width="582" height="541" viewBox="0 0 582 541" fill="none" xmlns="http://www.w3.org/2000/svg">
<path d="M683.39 89.8587C675.315 89.8587 668.779 95.7114 668.779 102.945V441.23C668.751 454.596 656.666 465.395 641.77 465.421H150.231C135.306 465.395 123.249 454.596 123.222 441.23V83.6731L167.495 100.095C171.048 101.412 175.114 101.412 178.682 100.095L237.58 78.2536L296.465 100.095C300.018 101.412 304.098 101.412 307.651 100.095L366.522 78.2536L425.393 100.095C428.946 101.412 433.013 101.412 436.566 100.095L495.507 78.2536L554.505 100.095C558.058 101.412 562.109 101.412 565.663 100.095L610.052 83.6604V419.736C610.052 426.968 616.585 432.822 624.662 432.822C632.737 432.822 639.273 426.968 639.273 419.736V64.0935C639.273 59.7233 636.847 55.6467 632.78 53.2175C628.729 50.7767 623.591 50.3181 619.082 52.0045L560.085 73.8315L501.087 52.0045C497.533 50.6753 493.481 50.6753 489.928 52.0045L430.986 73.8315L372.115 52.0045C368.563 50.6753 364.482 50.6753 360.929 52.0045L302.058 73.8315L243.173 52.0045C239.621 50.6753 235.553 50.6753 231.987 52.0045L173.089 73.8315L114.203 52.0045C109.68 50.3287 104.558 50.7767 100.492 53.2059C96.4254 55.6467 94 59.7233 94 64.0935V441.23C94 469.064 119.183 491.582 150.231 491.596H641.77C672.817 491.583 697.986 469.064 698.001 441.23V102.945C698 95.7114 691.465 89.8587 683.39 89.8587Z" fill="#C9C9C9" fill-opacity="0.35"/>
<path d="M704.001 441.233C703.983 472.984 675.491 497.582 641.772 497.596H150.229C116.512 497.581 88 472.986 88 441.229V64.0938C88 57.4153 91.7105 51.4792 97.4043 48.0615L97.415 48.0547L97.9492 47.7461C103.333 44.7398 109.856 44.1908 115.705 46.1719L116.288 46.3779L116.289 46.3789L173.087 67.4326L229.902 46.3779V46.3789C234.815 44.5509 240.368 44.5485 245.275 46.3848L245.274 46.3857L302.057 67.4326L358.827 46.3857V46.3848C363.736 44.5486 369.31 44.5481 374.218 46.3848L374.217 46.3857L430.986 67.4326L487.825 46.3857V46.3848C492.727 44.551 498.263 44.5495 503.167 46.3779L503.168 46.377L560.084 67.4336L617.001 46.377V46.3779C623.182 44.073 630.218 44.679 635.855 48.0674L635.856 48.0664C635.86 48.0683 635.862 48.0714 635.865 48.0732C635.869 48.0753 635.873 48.0761 635.876 48.0781L635.875 48.0791C641.571 51.4893 645.272 57.4243 645.272 64.0938V419.735C645.272 430.886 635.412 438.822 624.662 438.822C613.909 438.822 604.052 430.886 604.052 419.735V92.2793L567.746 105.721L567.747 105.722C562.849 107.536 557.32 107.536 552.422 105.722V105.723L495.508 84.6514L438.65 105.722C433.752 107.537 428.207 107.537 423.309 105.722L423.306 105.721L366.521 84.6533L309.738 105.721L309.735 105.722C304.837 107.537 299.279 107.536 294.381 105.722L294.379 105.721L237.579 84.6523L180.768 105.721L180.759 105.725C175.854 107.535 170.311 107.538 165.41 105.722L165.408 105.721L129.222 92.2979V441.218L129.229 441.66C129.515 450.948 138.176 459.4 150.241 459.422H641.76C653.985 459.4 662.752 450.681 662.779 441.229V102.945C662.779 91.7931 672.64 83.8584 683.39 83.8584C694.14 83.8584 703.999 91.7931 704.001 102.944V441.233Z" stroke="#C9C9C9" stroke-opacity="0.35" stroke-width="12"/>
<path d="M347.872 174.666H189.781V310.683H347.872V174.666Z" fill="#C9C9C9" fill-opacity="0.35"/>
<path d="M541.464 176.161H406.359V197.094H541.464V176.161Z" fill="#C9C9C9" fill-opacity="0.35"/>
<path d="M541.464 236.918H406.359V257.852H541.464V236.918Z" fill="#C9C9C9" fill-opacity="0.35"/>
<path d="M541.464 297.698H406.359V318.632H541.464V297.698Z" fill="#C9C9C9" fill-opacity="0.35"/>
<path d="M541.464 358.455H189.781V379.388H541.464V358.455Z" fill="#C9C9C9" fill-opacity="0.35"/>
</svg>
