<svg width="432" height="656" viewBox="0 0 432 656" fill="none" xmlns="http://www.w3.org/2000/svg">
<path d="M21.2695 129.172C12.222 145.005 12.5631 166.528 31.0284 175.761C53.9084 187.201 67.2163 166.96 78.1268 150.368C87.5195 136.087 98.0751 122.64 110.175 110.539C136.743 83.971 174.335 59.6364 223.273 59.6364C272.21 59.6364 309.802 83.971 336.37 110.539C348.411 122.581 358.931 135.956 368.284 150.162C379.189 166.722 392.667 187.186 415.517 175.761C433.891 166.574 434.281 144.929 425.276 129.172C423.111 125.385 419.959 120.137 415.812 113.914C407.546 101.52 395.154 84.9848 378.539 68.3698C345.471 35.3017 293.608 0 223.273 0C152.938 0 101.075 35.3017 68.0065 68.3698C51.3918 84.9848 38.9979 101.52 30.7352 113.914C26.5869 120.137 23.434 125.385 21.2695 129.172Z" fill="#C9C9C9" fill-opacity="0.35"/>
<path d="M177.836 170.349C171.89 176.199 167.283 182.132 164.179 186.599C153.784 201.568 139.68 215.829 119.786 205.219C103.302 196.428 100.789 175.847 109.755 160.96C111.031 158.841 112.847 155.965 115.197 152.583C119.86 145.868 126.808 136.892 136.019 127.833C154.121 110.025 183.582 89.4546 223.27 89.4546C262.958 89.4546 292.418 110.025 310.524 127.832C319.735 136.891 326.682 145.867 331.346 152.582C333.692 155.964 335.508 158.841 336.788 160.959C345.772 175.877 343.178 196.459 326.757 205.219C306.859 215.833 292.761 201.571 282.363 186.6C279.259 182.133 274.652 176.2 268.704 170.349C256.493 158.339 241.226 149.091 223.27 149.091C205.313 149.091 190.046 158.338 177.836 170.349Z" fill="#C9C9C9" fill-opacity="0.35"/>
<path d="M-104.727 506.909C-121.195 506.909 -134.545 520.259 -134.545 536.727C-134.545 553.196 -121.195 566.545 -104.727 566.545C-88.2593 566.545 -74.9091 553.196 -74.9091 536.727C-74.9091 520.259 -88.2593 506.909 -104.727 506.909Z" fill="#C9C9C9" fill-opacity="0.35"/>
<path d="M-45.0909 536.727C-45.0909 520.259 -31.741 506.909 -15.2727 506.909C1.19556 506.909 14.5455 520.259 14.5455 536.727C14.5455 553.196 1.19556 566.545 -15.2727 566.545C-31.741 566.545 -45.0909 553.196 -45.0909 536.727Z" fill="#C9C9C9" fill-opacity="0.35"/>
<path d="M44.3636 536.727C44.3636 520.259 57.7133 506.909 74.1819 506.909C90.6504 506.909 104 520.259 104 536.727C104 553.196 90.6504 566.545 74.1819 566.545C57.7133 566.545 44.3636 553.196 44.3636 536.727Z" fill="#C9C9C9" fill-opacity="0.35"/>
<path fill-rule="evenodd" clip-rule="evenodd" d="M193.455 208.727C193.455 192.259 206.804 178.909 223.273 178.909C239.741 178.909 253.091 192.259 253.091 208.727V417.455H342.545C391.951 417.455 432 457.503 432 506.909V566.545C432 615.951 391.951 656 342.545 656H-134.545C-183.95 656 -224 615.951 -224 566.545V506.909C-224 457.503 -183.95 417.455 -134.545 417.455H193.455V208.727ZM342.545 477.091C359.014 477.091 372.364 490.44 372.364 506.909V566.545C372.364 583.014 359.014 596.364 342.545 596.364H-134.545C-151.013 596.364 -164.364 583.014 -164.364 566.545V506.909C-164.364 490.44 -151.013 477.091 -134.545 477.091H342.545Z" fill="#C9C9C9" fill-opacity="0.35"/>
</svg>
